<svg width="33" height="18" viewBox="0 0 33 18" fill="none" xmlns="http://www.w3.org/2000/svg">
<path d="M32.0286 1.30002C32.2843 2.00087 31.4505 3.61064 29.5273 6.12932C29.2605 6.47975 28.8993 6.94516 28.4435 7.52555C27.9988 8.08404 27.6931 8.47827 27.5264 8.70824C27.3596 8.93821 27.1901 9.20924 27.0178 9.52134C26.8455 9.83343 26.7788 10.0634 26.8177 10.2112C26.8566 10.3591 26.9288 10.548 27.0345 10.7779C27.1401 11.0079 27.3207 11.2434 27.5764 11.4843C27.8321 11.7252 28.1489 12.0154 28.5269 12.3549C28.5713 12.3768 28.5991 12.3987 28.6102 12.4206C30.1777 13.8551 31.2393 15.0652 31.7951 16.0508C31.8285 16.1055 31.8646 16.174 31.9035 16.2561C31.9424 16.3382 31.9813 16.4833 32.0202 16.6914C32.0591 16.8994 32.0564 17.0856 32.0119 17.2499C31.9674 17.4141 31.8285 17.5647 31.595 17.7016C31.3616 17.8385 31.0336 17.9069 30.6112 17.9069L26.3424 17.9726C26.0757 18.0274 25.7644 18 25.4087 17.8905C25.0529 17.781 24.7639 17.6605 24.5416 17.5291L24.2081 17.332C23.8746 17.102 23.4855 16.7516 23.0408 16.2807C22.5962 15.8098 22.2154 15.3855 21.8986 15.0077C21.5818 14.6299 21.2427 14.3123 20.8814 14.055C20.5201 13.7976 20.2061 13.7128 19.9393 13.8004C19.906 13.8113 19.8615 13.8305 19.8059 13.8579C19.7503 13.8852 19.6558 13.9646 19.5224 14.096C19.389 14.2274 19.2695 14.389 19.1639 14.5806C19.0583 14.7722 18.9638 15.057 18.8805 15.4348C18.7971 15.8126 18.7609 16.2369 18.7721 16.7078C18.7721 16.8721 18.7526 17.0226 18.7137 17.1595C18.6748 17.2964 18.6331 17.3977 18.5886 17.4634L18.5219 17.5455C18.3218 17.7536 18.0273 17.8741 17.6382 17.9069H15.7206C14.9313 17.9507 14.1198 17.8604 13.286 17.6359C12.4523 17.4114 11.7214 17.1212 11.0933 16.7653C10.4652 16.4094 9.8927 16.048 9.37578 15.6812C8.85886 15.3143 8.467 14.9995 8.20021 14.7367L7.78334 14.3424C7.67217 14.2329 7.51932 14.0687 7.32478 13.8496C7.13024 13.6306 6.73282 13.1324 6.13253 12.3549C5.53223 11.5774 4.94305 10.7506 4.36499 9.8745C3.78693 8.99844 3.10604 7.84313 2.32232 6.40857C1.5386 4.97401 0.813247 3.4847 0.146253 1.94064C0.0795533 1.76543 0.0462036 1.61759 0.0462036 1.49713C0.0462036 1.37667 0.0628785 1.28907 0.0962282 1.23431L0.162928 1.13576C0.329676 0.92769 0.646498 0.823657 1.11339 0.823657L5.6823 0.790805C5.8157 0.812706 5.94354 0.848296 6.06583 0.897575C6.18811 0.946854 6.27704 0.993395 6.33262 1.0372L6.416 1.08648C6.59386 1.20694 6.72726 1.38215 6.81619 1.61212C7.03853 2.15966 7.29421 2.72636 7.58324 3.31223C7.87227 3.8981 8.10016 4.34434 8.26691 4.65096L8.5337 5.12733C8.85608 5.78437 9.16735 6.35382 9.4675 6.83565C9.76764 7.31749 10.0372 7.69255 10.2762 7.96085C10.5152 8.22914 10.7459 8.43994 10.9682 8.59326C11.1906 8.74657 11.3795 8.82322 11.5352 8.82322C11.6908 8.82322 11.8409 8.79585 11.9854 8.74109C12.0076 8.73014 12.0354 8.70276 12.0688 8.65896C12.1021 8.61516 12.1688 8.4947 12.2689 8.29758C12.3689 8.10047 12.444 7.84313 12.494 7.52555C12.544 7.20798 12.5968 6.76447 12.6524 6.19503C12.708 5.62559 12.708 4.94116 12.6524 4.14175C12.6302 3.70372 12.5801 3.30402 12.5023 2.94264C12.4245 2.58126 12.3467 2.32939 12.2689 2.18703L12.1688 1.98992C11.8909 1.61759 11.4185 1.38215 10.7515 1.28359C10.6069 1.26169 10.6347 1.13028 10.8348 0.889362C11.0127 0.681297 11.2239 0.517035 11.4685 0.396576C12.0577 0.111855 13.3861 -0.019555 15.4538 0.0023466C16.3653 0.0132974 17.1157 0.0844777 17.7049 0.215887C17.9272 0.270641 18.1134 0.344559 18.2635 0.437641C18.4136 0.530723 18.5275 0.662133 18.6053 0.83187C18.6831 1.00161 18.7415 1.17682 18.7804 1.35751C18.8193 1.5382 18.8388 1.78733 18.8388 2.1049C18.8388 2.42248 18.8332 2.72362 18.8221 3.00834C18.811 3.29306 18.7971 3.67908 18.7804 4.16639C18.7637 4.6537 18.7554 5.10542 18.7554 5.52155C18.7554 5.64201 18.7498 5.87198 18.7387 6.21145C18.7276 6.55093 18.7248 6.81375 18.7304 6.99991C18.7359 7.18608 18.7554 7.40783 18.7887 7.66517C18.8221 7.92252 18.886 8.13606 18.9805 8.3058C19.075 8.47553 19.2001 8.60968 19.3557 8.70824C19.4446 8.73014 19.5391 8.75204 19.6392 8.77394C19.7392 8.79585 19.8837 8.73562 20.0727 8.59326C20.2617 8.4509 20.4729 8.26199 20.7063 8.02655C20.9398 7.79111 21.2288 7.42426 21.5734 6.92599C21.9181 6.42773 22.296 5.83913 22.7073 5.16018C23.3743 4.02129 23.9691 2.78933 24.4915 1.46428C24.536 1.35477 24.5916 1.25895 24.6583 1.17682C24.725 1.09469 24.7861 1.0372 24.8417 1.00435L24.9084 0.955067L24.9918 0.914001L25.2086 0.864723L25.5421 0.85651L30.3444 0.823657C30.778 0.768903 31.1337 0.782592 31.4116 0.864723C31.6895 0.946854 31.8618 1.0372 31.9285 1.13576L32.0286 1.30002Z" fill="black"/>
</svg>
